<svg xmlns="http://www.w3.org/2000/svg" viewBox="0 0 100 100" width="100%" height="100%">
  <defs>
    <linearGradient id="berryGrad" x1="0%" y1="0%" x2="100%" y2="100%">
      <stop offset="0%" stop-color="#FF9BBB"/>
      <stop offset="60%" stop-color="#FF6B97"/>
      <stop offset="100%" stop-color="#FA5283"/>
    </linearGradient>
    <filter id="berryGlow" x="-20%" y="-20%" width="140%" height="140%">
      <feDropShadow dx="0" dy="3" stdDeviation="3" flood-color="#FF6B97" flood-opacity="0.3"/>
    </filter>
  </defs>
  <g filter="url(#berryGlow)">
    <!-- Strawberry Body -->
    <path d="M50 88 C32 76 22 55 24 38 C26 26 38 24 50 28 C62 24 74 26 76 38 C78 55 68 76 50 88 Z" fill="url(#berryGrad)"/>
    <!-- Highlight -->
    <path d="M30 35 C32 30 40 28 44 29" stroke="#FFFFFF" stroke-width="2.5" stroke-linecap="round" fill="none" opacity="0.6"/>
    <!-- Calyx / Leaves -->
    <path d="M50 26 C46 16 38 16 34 22 C40 26 44 26 50 26 Z" fill="#9AEBA3"/>
    <path d="M50 26 C54 16 62 16 66 22 C60 26 56 26 50 26 Z" fill="#9AEBA3"/>
    <path d="M50 26 C50 14 52 10 50 8 C48 10 47 16 50 26 Z" stroke="#71D57D" stroke-width="2.5" stroke-linecap="round" fill="none"/>
    <path d="M50 26 C48 18 52 18 50 26 Z" fill="#71D57D"/>
    <!-- Yellow Seeds -->
    <ellipse cx="38" cy="42" rx="1.5" ry="2.5" fill="#FFE8A3" transform="rotate(-15 38 42)"/>
    <ellipse cx="50" cy="42" rx="1.5" ry="2.5" fill="#FFE8A3"/>
    <ellipse cx="62" cy="42" rx="1.5" ry="2.5" fill="#FFE8A3" transform="rotate(15 62 42)"/>
    <ellipse cx="33" cy="55" rx="1.5" ry="2.5" fill="#FFE8A3" transform="rotate(-20 33 55)"/>
    <ellipse cx="44" cy="56" rx="1.5" ry="2.5" fill="#FFE8A3" transform="rotate(-5 44 56)"/>
    <ellipse cx="56" cy="56" rx="1.5" ry="2.5" fill="#FFE8A3" transform="rotate(5 56 56)"/>
    <ellipse cx="67" cy="55" rx="1.5" ry="2.5" fill="#FFE8A3" transform="rotate(20 67 55)"/>
    <ellipse cx="42" cy="69" rx="1.5" ry="2.5" fill="#FFE8A3" transform="rotate(-10 42 69)"/>
    <ellipse cx="56" cy="69" rx="1.5" ry="2.5" fill="#FFE8A3" transform="rotate(10 56 69)"/>
    <ellipse cx="50" cy="78" rx="1.5" ry="2.2" fill="#FFE8A3"/>
  </g>
</svg>
